<svg id="Layer_1" data-name="Layer 1" xmlns="http://www.w3.org/2000/svg" viewBox="0 0 1136.12 240"><defs><style>.cls-1{fill:#ff6c2c}</style></defs><title>cpanel-logo-RGB</title><path class="cls-1" d="M285.39 335.1h67.8l-10.5 40.2a25.41 25.41.0 01-9 13.5 24.3 24.3.0 01-15.3 5.1h-31.5a30.52 30.52.0 00-19.05 6.3 32.94 32.94.0 00-11.55 17.1 31.88 31.88.0 00-.45 15.3 33 33 0 005.85 12.75 30.22 30.22.0 0010.8 8.85 31.69 31.69.0 0014.4 3.3h19.2a10.81 10.81.0 018.85 4.35 10.42 10.42.0 012 9.75l-12 44.4h-21a84.78 84.78.0 01-39.75-9.45A89.7 89.7.0 01214 481.5 88.46 88.46.0 01198.7 405l1.2-4.5a88.68 88.68.0 0131.65-47.25 89.92 89.92.0 0125.05-13.35A87.08 87.08.0 01285.39 335.1z" transform="translate(-195.7 -276)"/><path class="cls-1" d="M319.59 516l59.1-221.4a25.38 25.38.0 019-13.5A24.31 24.31.0 01403 276h62.7a84.78 84.78.0 0139.75 9.45A89.21 89.21.0 01552.09 346a83.84 83.84.0 01-1.2 41l-1.2 4.5a89.9 89.9.0 01-12 26.55 87.65 87.65.0 01-73.2 39.15h-54.3L421 416.7a25.36 25.36.0 019-13.2 24.31 24.31.0 0115.3-5.1h17.4a31.56 31.56.0 0030.6-23.7 29.47 29.47.0 00.45-14.7 33.17 33.17.0 00-5.85-12.75 31.85 31.85.0 00-10.8-9 30.66 30.66.0 00-14.4-3.45h-33.6l-43.8 162.9a25.42 25.42.0 01-9 13.2 23.87 23.87.0 01-15 5.1z" transform="translate(-195.7 -276)"/><path class="cls-1" d="M693.69 397.8l.9-3.3a4.38 4.38.0 00-.75-4 4.59 4.59.0 00-3.75-1.65h-97.5a24 24 0 01-11.4-2.7 25.06 25.06.0 01-8.4-7 24.75 24.75.0 01-4.5-10 25.71 25.71.0 01.3-11.7l6-22.8h132a47.33 47.33.0 0122.5 5.4A51.87 51.87.0 01746 354a50.23 50.23.0 019.3 20 49.62 49.62.0 01-.45 23.25l-23.7 88.2a40.62 40.62.0 01-39.6 30.3l-97.5-.3a51.6 51.6.0 01-41.4-20.25 54.5 54.5.0 01-9.6-21 49.53 49.53.0 01.6-24.15l1.2-4.5a47.78 47.78.0 017-15.6 54.26 54.26.0 0111.55-12.3 52.26 52.26.0 0114.7-7.95 51.19 51.19.0 0117.1-2.85h81.9l-6 22.5a25.38 25.38.0 01-9 13.2 23.86 23.86.0 01-15 5.1h-36.6q-5.1.0-6.6 5.1a6.15 6.15.0 001.2 5.85 6.67 6.67.0 005.4 2.55h59.1a9.25 9.25.0 005.7-1.8 7.71 7.71.0 003-4.8l.6-2.4z" transform="translate(-195.7 -276)"/><path class="cls-1" d="M868.29 335.1a85.42 85.42.0 0140 9.45 89.85 89.85.0 0130.15 25 88.47 88.47.0 0116.35 35.7 85.72 85.72.0 01-1.35 41.1l-15 56.4a16.47 16.47.0 01-6.45 9.6 18.2 18.2.0 01-11 3.6h-32.4a11 11 0 01-10.8-14.1l18-68.1a29.43 29.43.0 00.45-14.7 33.19 33.19.0 00-5.85-12.75 31.86 31.86.0 00-10.8-9 30.66 30.66.0 00-14.4-3.45h-33.6l-29.1 108.9a16.43 16.43.0 01-6.45 9.6 18.65 18.65.0 01-11.25 3.6h-32.1a10.79 10.79.0 01-8.85-4.35 10.41 10.41.0 01-2-9.75l44.4-166.8z" transform="translate(-195.7 -276)"/><path class="cls-1" d="M1045 392.25a15.35 15.35.0 00-5.1 7.35l-13.5 51a9 9 0 008.7 11.4h124.2l-9.6 35.7a25.42 25.42.0 01-9 13.2 23.88 23.88.0 01-15 5.1h-113.1a48.39 48.39.0 01-22.5-5.25 49.39 49.39.0 01-17-14.1 51.39 51.39.0 01-9.3-20.1 46 46 0 01.75-23l18.3-68.1a67.49 67.49.0 019.3-20.4 67.31 67.31.0 0134-26.25 65.94 65.94.0 0122.05-3.75h80.1a47.34 47.34.0 0122.5 5.4 51.88 51.88.0 0117 14.1 48.7 48.7.0 019.15 20.1 50.23 50.23.0 01-.6 23.1l-5.4 20.4A39 39 0 011156.43 440a40.08 40.08.0 01-24.75 8.25h-90.6l6-22.2a23.76 23.76.0 018.7-13.2 24.31 24.31.0 0115.3-5.1h36.6q5.1.0 6.6-5.1l1.2-4.5a6.92 6.92.0 00-6.6-8.7h-55.8A12.73 12.73.0 001045 392.25z" transform="translate(-195.7 -276)"/><path class="cls-1" d="M1159 516l60.3-226.5a17.11 17.11.0 016.45-9.75A18.15 18.15.0 011237 276h32.1a11.11 11.11.0 019.15 4.35 10.42 10.42.0 011.95 9.75l-45 167.1a74.39 74.39.0 01-10.65 24 78.53 78.53.0 01-17.4 18.45 81.47 81.47.0 01-22.35 12A76.75 76.75.0 011159 516z" transform="translate(-195.7 -276)"/><path class="cls-1" d="M1290.53 297.06a20.41 20.41.0 012.75-10.3 20.14 20.14.0 017.55-7.58 20.69 20.69.0 0120.65.0 20.15 20.15.0 017.58 7.55 20.65 20.65.0 11-38.52 10.35zm2.88.0a17.79 17.79.0 0017.76 17.76 17.29 17.29.0 008.87-2.39 17.89 17.89.0 006.49-6.47 17.69 17.69.0 000-17.78 17.89 17.89.0 00-6.47-6.49 17.69 17.69.0 00-17.78.0 17.87 17.87.0 00-6.49 6.47A17.23 17.23.0 001293.41 297.06zm26.14-5a6.67 6.67.0 01-1.17 3.88 6.92 6.92.0 01-3.28 2.51l6.53 10.85H1317l-5.68-9.72h-3.71v9.72h-4.06V284.85h7.17q4.56.0 6.69 1.78A6.7 6.7.0 011319.55 292.07zm-11.92 4.15h3a5.24 5.24.0 003.53-1.14 3.65 3.65.0 001.33-2.9 3.47 3.47.0 00-1.18-3 6.23 6.23.0 00-3.73-.89h-2.91z" transform="translate(-195.7 -276)"/></svg>