<svg xmlns="http://www.w3.org/2000/svg" viewBox="0 0 261.508 32.112"><defs><style>.a{fill:#273947}.b{fill:#ff6c2c}</style></defs><g transform="translate(-201 -20.421)"><path class="a" d="M-53.118-1.872-45.24-31.2h8.97a14.853 14.853.0 016.942 1.638 15.364 15.364.0 015.228 4.349 15.543 15.543.0 012.827 6.181 14.788 14.788.0 01-.215 7.1l-.156.585a14.756 14.756.0 01-2.087 4.622 15.211 15.211.0 01-3.374 3.569 15.764 15.764.0 01-4.329 2.32A14.906 14.906.0 01-36.426.0h-7.449l1.4-5.265a3.342 3.342.0 011.155-1.716 3.082 3.082.0 011.97-.663h2.691a7.864 7.864.0 002.574-.429 7.886 7.886.0 002.262-1.209 8.031 8.031.0 001.755-1.872 7.916 7.916.0 001.092-2.379 7.8 7.8.0 00.117-3.705 7.855 7.855.0 00-1.482-3.2 8.27 8.27.0 00-2.73-2.262 7.614 7.614.0 00-3.588-.858h-2.73l-5.85 21.8a2.224 2.224.0 01-.838 1.268A2.359 2.359.0 01-47.541.0h-4.173a1.388 1.388.0 01-1.151-.585 1.4 1.4.0 01-.253-1.287zM-4.329-7.644a1.653 1.653.0 001.053-.371 1.994 1.994.0 00.663-.955l1.521-5.811a.876.876.0 00-.136-.78.8.8.0 00-.683-.351H-9.165a1.708 1.708.0 00-1.092.37 1.768 1.768.0 00-.624.955l-1.56 5.811a.845.845.0 00.156.78.851.851.0 00.7.351zM-18.135-17a8.775 8.775.0 011.209-2.652A8.878 8.878.0 01-15-21.723a8.878 8.878.0 012.5-1.345 8.568 8.568.0 012.866-.488H.78a6.154 6.154.0 012.925.7 6.738 6.738.0 012.2 1.833 6.526 6.526.0 011.209 2.613 6.042 6.042.0 01-.1 3L4.641-6.552A8.775 8.775.0 013.432-3.9 8.878 8.878.0 011.5-1.833 8.878 8.878.0 01-.994-.488 8.569 8.569.0 01-3.861.0H-14.274A6.154 6.154.0 01-17.2-.7a6.738 6.738.0 01-2.2-1.833 6.526 6.526.0 01-1.209-2.613 6.043 6.043.0 01.1-3zM19.5-23.517h8.814l-1.365 5.226a3.3 3.3.0 01-1.17 1.755 3.162 3.162.0 01-1.989.663H19.695a3.968 3.968.0 00-2.476.819 4.286 4.286.0 00-1.5 2.223 4.148 4.148.0 00-.058 1.989 4.3 4.3.0 00.76 1.658 3.938 3.938.0 001.4 1.15 4.127 4.127.0 001.872.429h2.5a1.4 1.4.0 011.151.565 1.352 1.352.0 01.253 1.267L22.035.0H19.3a11.02 11.02.0 01-5.167-1.229 11.672 11.672.0 01-3.92-3.257A11.492 11.492.0 018.092-9.107a11.377 11.377.0 01.136-5.323l.156-.585a11.407 11.407.0 011.58-3.452A11.374 11.374.0 0112.5-21.158a11.688 11.688.0 013.257-1.735A11.315 11.315.0 0119.5-23.517zM35.607-23.6h17.9L52.3-18.954a3.3 3.3.0 01-1.17 1.755 3.162 3.162.0 01-1.989.663H36.231a.489.489.0 00-.546.429.605.605.0 00.078.526.541.541.0 00.468.215h6.9a7.468 7.468.0 013.49.819 7.635 7.635.0 012.613 2.184 7.747 7.747.0 011.4 3.1 7.729 7.729.0 01-.1 3.569 7.5 7.5.0 01-1.072 2.281 8.246 8.246.0 01-1.7 1.794 7.42 7.42.0 01-2.165 1.17 7.555 7.555.0 01-2.476.41L25.311-.078 26.52-4.719a3.4 3.4.0 011.17-1.736 3.048 3.048.0 011.95-.682H42.549a.544.544.0 00.585-.429.552.552.0 00-.1-.507.575.575.0 00-.487-.234h-6.94a7.386 7.386.0 01-3.451-.819 7.73 7.73.0 01-2.613-2.165 7.8 7.8.0 01-1.424-3.081 7.245 7.245.0 01.117-3.569 8.048 8.048.0 011.053-2.3 7.361 7.361.0 011.677-1.794 7.686 7.686.0 012.164-1.151A7.555 7.555.0 0135.607-23.6z" transform="translate(409 52)"/><g transform="translate(200.957 20.426)"><path class="b" d="M207.737 335.1h9.071l-1.4 5.378a3.4 3.4.0 01-1.2 1.806 3.252 3.252.0 01-2.047.682h-4.214a4.083 4.083.0 00-2.549.843 4.407 4.407.0 00-1.545 2.288 4.266 4.266.0 00-.06 2.047 4.415 4.415.0 00.783 1.706 4.043 4.043.0 001.445 1.184 4.24 4.24.0 001.927.442h2.569a1.446 1.446.0 011.184.582 1.394 1.394.0 01.268 1.3l-1.606 5.94h-2.81a11.342 11.342.0 01-5.318-1.264 12 12 0 01-4.039-3.352 11.835 11.835.0 01-2.047-10.235l.161-.6a11.865 11.865.0 014.235-6.322 12.03 12.03.0 013.352-1.786A11.651 11.651.0 01207.737 335.1z" transform="translate(-195.7 -327.197)"/><path class="b" d="M319.59 308.107l7.907-29.622a3.4 3.4.0 011.2-1.806A3.252 3.252.0 01330.75 276h8.389a11.343 11.343.0 015.318 1.264 11.936 11.936.0 016.24 8.1 11.217 11.217.0 01-.161 5.486l-.161.6A12.028 12.028.0 01348.77 295a11.727 11.727.0 01-9.794 5.238h-7.265l1.446-5.419a3.393 3.393.0 011.2-1.766 3.253 3.253.0 012.047-.682h2.328a4.223 4.223.0 004.094-3.171 3.944 3.944.0 00.06-1.967 4.438 4.438.0 00-.783-1.706 4.261 4.261.0 00-1.445-1.2 4.1 4.1.0 00-1.927-.462h-4.5l-5.86 21.795a3.4 3.4.0 01-1.2 1.766 3.193 3.193.0 01-2.007.682z" transform="translate(-302.977 -276.001)"/><path class="b" d="M562.156 343.1l.12-.442a.585.585.0 00-.1-.535.614.614.0 00-.5-.221H548.63a3.21 3.21.0 01-1.525-.361 3.355 3.355.0 01-1.124-.937 3.312 3.312.0 01-.6-1.338 3.441 3.441.0 01.04-1.565l.8-3.051h17.661a6.333 6.333.0 013.01.723 6.941 6.941.0 012.262 1.866 6.721 6.721.0 011.244 2.676 6.639 6.639.0 01-.06 3.111l-3.171 11.8a5.435 5.435.0 01-5.3 4.054l-13.045-.04a6.9 6.9.0 01-5.539-2.709 7.288 7.288.0 01-1.285-2.81 6.626 6.626.0 01.08-3.231l.161-.6a6.393 6.393.0 01.937-2.087 7.261 7.261.0 011.545-1.646 6.993 6.993.0 011.967-1.064 6.85 6.85.0 012.288-.381h10.958l-.8 3.01a3.4 3.4.0 01-1.2 1.766 3.193 3.193.0 01-2.007.682h-4.9a.85.85.0 00-.883.682.823.823.0 00.161.783.892.892.0 00.722.341h7.907a1.238 1.238.0 00.763-.241 1.031 1.031.0 00.4-.642l.08-.321z" transform="translate(-495.492 -326.805)"/><path class="b" d="M758.366 335.057a11.428 11.428.0 015.352 1.264 12.019 12.019.0 014.034 3.345 11.836 11.836.0 012.188 4.776 11.468 11.468.0 01-.181 5.5l-2.007 7.546a2.2 2.2.0 01-.863 1.284 2.435 2.435.0 01-1.472.482h-4.335a1.472 1.472.0 01-1.445-1.886l2.408-9.111a3.938 3.938.0 00.06-1.967 4.439 4.439.0 00-.783-1.706 4.263 4.263.0 00-1.445-1.2 4.1 4.1.0 00-1.927-.462h-4.5l-3.893 14.57a2.2 2.2.0 01-.863 1.284 2.5 2.5.0 01-1.505.482H742.9a1.444 1.444.0 01-1.184-.582 1.393 1.393.0 01-.268-1.3l5.94-22.317z" transform="translate(-668.341 -327.154)"/><path class="b" d="M973.7 342.7a2.053 2.053.0 00-.682.983l-1.806 6.823a1.2 1.2.0 001.164 1.525h16.617l-1.284 4.776a3.4 3.4.0 01-1.2 1.766 3.2 3.2.0 01-2.007.682H969.367a6.474 6.474.0 01-3.01-.7 6.609 6.609.0 01-2.275-1.886 6.878 6.878.0 01-1.244-2.689 6.154 6.154.0 01.1-3.077l2.448-9.111a9.122 9.122.0 015.793-6.241 8.821 8.821.0 012.95-.5h10.717a6.333 6.333.0 013.01.722 6.939 6.939.0 012.275 1.887 6.514 6.514.0 011.224 2.689 6.719 6.719.0 01-.08 3.091l-.722 2.729a5.219 5.219.0 01-1.943 2.923 5.363 5.363.0 01-3.312 1.1H973.177l.8-2.97a3.178 3.178.0 011.164-1.766 3.253 3.253.0 012.047-.682h4.9a.85.85.0 00.883-.682l.161-.6a.926.926.0 00-.883-1.164h-7.466A1.7 1.7.0 00973.7 342.7z" transform="translate(-860.034 -327.151)"/><path class="b" d="M1159 308.106l8.068-30.3a2.29 2.29.0 01.863-1.3 2.429 2.429.0 011.505-.5h4.295a1.486 1.486.0 011.224.582 1.392 1.392.0 01.261 1.3l-6.02 22.357a9.954 9.954.0 01-1.425 3.211 10.508 10.508.0 01-2.328 2.468 10.9 10.9.0 01-2.99 1.606A10.269 10.269.0 011159 308.106z" transform="translate(-1030.08 -276)"/><path class="b" d="M1290.53 279.181a2.731 2.731.0 01.368-1.378 2.7 2.7.0 011.01-1.014 2.768 2.768.0 012.763.0 2.7 2.7.0 011.014 1.01 2.763 2.763.0 11-5.154 1.385zm.385.0a2.38 2.38.0 002.376 2.376 2.313 2.313.0 001.187-.32 2.4 2.4.0 00.868-.866 2.366 2.366.0 000-2.379 2.394 2.394.0 00-.866-.868 2.367 2.367.0 00-2.379.0 2.392 2.392.0 00-.868.866A2.305 2.305.0 001290.915 279.181zm3.5-.669a.893.893.0 01-.156.519.927.927.0 01-.439.336l.874 1.452h-.62l-.76-1.3h-.5v1.3h-.543v-3.271h.959a1.382 1.382.0 01.9.238.9.9.0 01.286.728zm-1.595.555h.4a.7.7.0 00.472-.152.488.488.0 00.178-.388.464.464.0 00-.158-.4.832.832.0 00-.5-.119h-.389z" transform="translate(-1144.012 -276.368)"/></g></g></svg>